<svg xmlns="http://www.w3.org/2000/svg" width="130.875" height="91.031" viewBox="0 0 130.875 91.031">
  <defs>
    <style>
      .cls-1 {
        fill: #231f20;
        fill-rule: evenodd;
      }
    </style>
  </defs>
  <path id="safari-pinned-tab" class="cls-1" d="M310.169,98.1a4.44,4.44,0,0,0-5.845,2.22l-31.155,69.223-20.5-31.2c4.35-7.111,11.116-19.076,11.875-25.858a18.964,18.964,0,0,0-4.493-14.86,17.254,17.254,0,0,0-25.39.033,18.927,18.927,0,0,0-4.526,14.827c0.759,6.782,7.525,18.747,11.874,25.857l-20.5,31.2-31.155-69.223A4.438,4.438,0,0,0,184.5,98.1a4.38,4.38,0,0,0-2.235,5.8l34.467,76.581a4.425,4.425,0,0,0,3.692,2.587c0.117,0.009.233,0.013,0.349,0.013a4.435,4.435,0,0,0,3.706-1.993l22.855-34.784,22.856,34.784a4.435,4.435,0,0,0,3.706,1.993c0.115,0,.232,0,0.349-0.013a4.425,4.425,0,0,0,3.692-2.587L312.4,103.9A4.38,4.38,0,0,0,310.169,98.1Zm-68.918,5.413a8.36,8.36,0,0,1,12.2-.032,10.234,10.234,0,0,1,2.292,8.032c-0.423,3.778-4.343,11.519-8.409,18.517-4.066-7-7.985-14.739-8.408-18.518A10.2,10.2,0,0,1,241.251,103.512Z" transform="translate(-181.906 -92.063)"/>
</svg>
