<svg xmlns="http://www.w3.org/2000/svg" viewBox="0 0 28.41 24.84"><defs><style>.a{fill:#dd5a58;}</style></defs><title>ico-heart</title><path class="a" d="M28.37,7.54A8.34,8.34,0,0,0,24.6,1.35,8.24,8.24,0,0,0,20.08,0a8.74,8.74,0,0,0-5.89,2.33A8.41,8.41,0,0,0,1.35,3.8,8.46,8.46,0,0,0,2.58,14.45l9.48,9.49a3,3,0,0,0,4.31,0L26,14.33A8.52,8.52,0,0,0,28.37,7.54Zm-4,5.21-9.57,9.6a.81.81,0,0,1-.6.24,1,1,0,0,1-.6-.24L4.1,12.87A6.29,6.29,0,0,1,3.17,5a6.21,6.21,0,0,1,9.61-1l.84.84a.82.82,0,0,0,1.17,0l.71-.72a6.52,6.52,0,0,1,4.58-1.92,6,6,0,0,1,3.29,1A6.17,6.17,0,0,1,24.36,12.75Z"/><path class="a" d="M8,4.61A3.81,3.81,0,0,0,5.18,6.34a3.93,3.93,0,0,0,.63,4.85,1.14,1.14,0,0,0,.78.33,1.11,1.11,0,0,0,.77-1.88A1.74,1.74,0,0,1,7,7.57,1.53,1.53,0,0,1,8.2,6.82,1.11,1.11,0,0,0,8,4.61Z"/></svg>