<svg xmlns="http://www.w3.org/2000/svg" width="21.969" height="22" viewBox="0 0 21.969 22">
  <defs>
    <style>
      .cls-1 {
        fill: #dd5a58;
        fill-rule: evenodd;
      }
    </style>
  </defs>
  <path id="ico-phone" class="cls-1" d="M3.791,6a2.557,2.557,0,0,0-1.422.489,0.735,0.735,0,0,0-.122.1A7.751,7.751,0,0,0,.411,14.646a19.706,19.706,0,0,0,5.107,7.835,19.712,19.712,0,0,0,7.837,5.106,7.756,7.756,0,0,0,8.059-1.834,0.734,0.734,0,0,0,.1-0.13,2.336,2.336,0,0,0,.466-1.636,2.5,2.5,0,0,0-.841-1.345L18.02,19.523a1.206,1.206,0,0,0-.948-0.313,1.587,1.587,0,0,0-.7.306,7.4,7.4,0,0,0-1.025.948,7.7,7.7,0,0,1-.872.8,0.692,0.692,0,0,1-.168.092,23.506,23.506,0,0,1-4.251-3.4l-0.008-.008-0.008-.008a23.421,23.421,0,0,1-3.395-4.25,0.7,0.7,0,0,1,.092-0.168,7.734,7.734,0,0,1,.8-0.864,7.4,7.4,0,0,0,.94-1.032,1.584,1.584,0,0,0,.306-0.7A1.2,1.2,0,0,0,8.47,9.976L5.351,6.857A2.5,2.5,0,0,0,4,6.016,1.585,1.585,0,0,0,3.791,6ZM3.76,7.469a1.58,1.58,0,0,1,.558.428l2.928,2.928a7.974,7.974,0,0,1-.734.78,8.026,8.026,0,0,0-.979,1.07,2.1,2.1,0,0,0-.344.7,1.326,1.326,0,0,0,.1.933A23.518,23.518,0,0,0,9.005,18.98L9.013,19a23.525,23.525,0,0,0,4.679,3.715,1.343,1.343,0,0,0,.94.092,2.049,2.049,0,0,0,.688-0.336,8.023,8.023,0,0,0,1.071-.978,7.871,7.871,0,0,1,.787-0.734L20.1,23.681a1.7,1.7,0,0,1,.436.55,1.5,1.5,0,0,1-.245.55,6.111,6.111,0,0,1-6.514,1.4,18.508,18.508,0,0,1-7.218-4.739,18.526,18.526,0,0,1-4.748-7.216,6.111,6.111,0,0,1,1.4-6.52A1.34,1.34,0,0,1,3.76,7.469Z" transform="translate(0 -6)"/>
</svg>
