<svg height="45.95" viewBox="0 0 312 45.95" width="312" xmlns="http://www.w3.org/2000/svg"><path d="m124.385-121.444c-.158 1.416-1.48 4.383-3.648 8.2-2.169-3.819-3.491-6.787-3.649-8.2a4.551 4.551 0 0 1 1.02-3.564 3.433 3.433 0 0 1 2.629-1.152 3.447 3.447 0 0 1 2.644 1.136 4.574 4.574 0 0 1 1 3.58m27.088-6.905a2.6 2.6 0 0 0 -3.428 1.307l-14.816 33.072-9.373-14.33c2.433-4.017 5.335-9.368 5.691-12.572a9.73 9.73 0 0 0 -2.295-7.6 8.626 8.626 0 0 0 -6.511-2.86 8.613 8.613 0 0 0 -6.5 2.876 9.711 9.711 0 0 0 -2.312 7.585c.357 3.2 3.258 8.555 5.692 12.572l-9.374 14.33-14.815-33.073a2.577 2.577 0 0 0 -1.442-1.362 2.583 2.583 0 0 0 -1.986.055 2.577 2.577 0 0 0 -1.366 1.438 2.564 2.564 0 0 0 .055 1.98l16.761 37.406a2.591 2.591 0 0 0 2.166 1.525 2.615 2.615 0 0 0 2.377-1.167l10.743-16.422 10.744 16.421a2.589 2.589 0 0 0 2.172 1.173c.068 0 .137 0 .206-.008a2.593 2.593 0 0 0 2.165-1.524l16.762-37.406a2.587 2.587 0 0 0 -1.311-3.417" transform="translate(-88.463 131.334)"/><path d="m199.576-108.317h.433a.552.552 0 0 0 .461-.3l4.93-11.083h.081l4.96 11.084a.552.552 0 0 0 .461.3h.433a.521.521 0 0 0 .488-.379l5.123-18.213a.473.473 0 0 0 -.488-.651h-3.168a.558.558 0 0 0 -.488.38l-2.331 9.187h-.108l-4.2-9.54a.459.459 0 0 0 -.46-.3h-.488a.516.516 0 0 0 -.461.3l-4.2 9.54h-.108l-2.331-9.187a.558.558 0 0 0 -.488-.38h-3.171a.473.473 0 0 0 -.488.651l5.123 18.213a.522.522 0 0 0 .488.379" transform="translate(-120.454 130.272)"/><path d="m232.85-108.47h3.25a.532.532 0 0 0 .514-.515v-17.941a.534.534 0 0 0 -.514-.516h-3.25a.534.534 0 0 0 -.514.516v17.941a.532.532 0 0 0 .514.515" transform="translate(-132.101 130.154)"/><path d="m261.985-108.317a.476.476 0 0 0 .514-.488v-18.239a.532.532 0 0 0 -.514-.516h-3.253a.514.514 0 0 0 -.514.516v9.621h-.028l-10.407-10c-.216-.216-.407-.406-.678-.406h-.405a.51.51 0 0 0 -.516.488l.026 18.24a.533.533 0 0 0 .516.515h3.225a.514.514 0 0 0 .515-.515v-10.108h.027l10.542 10.6a.87.87 0 0 0 .679.3z" transform="translate(-136.301 130.272)"/><path d="m289.594-108.985v-2.954a.514.514 0 0 0 -.514-.515h-7.507v-3.659h6.178a.515.515 0 0 0 .516-.516v-2.954a.533.533 0 0 0 -.516-.515h-6.178v-3.36h7.507a.515.515 0 0 0 .514-.516v-2.953a.514.514 0 0 0 -.514-.516h-11.222a.515.515 0 0 0 -.515.516v17.942a.514.514 0 0 0 .515.514h11.222a.513.513 0 0 0 .514-.514" transform="translate(-145.752 130.154)"/><path d="m203.316-86.292h-2.737v-4.147h2.737a1.93 1.93 0 0 1 1.979 2.005 2 2 0 0 1 -1.979 2.142m.081-8.132h-6.531a.515.515 0 0 0 -.515.516v17.942a.515.515 0 0 0 .515.515h3.2a.533.533 0 0 0 .515-.515v-6.369h2.845a5.943 5.943 0 0 0 6.044-6.1 5.909 5.909 0 0 0 -6.071-5.99" transform="translate(-121.186 120.001)"/><path d="m220.58-82.074 2.033-4.472h.027l2.06 4.472zm2.657-12.44a.551.551 0 0 0 -.461-.3h-.276a.549.549 0 0 0 -.46.3l-8.484 18.24a.479.479 0 0 0 .462.7h2.982a1.01 1.01 0 0 0 .977-.651l.975-2.168h7.372l.977 2.142c.243.515.46.677.948.677h3.008a.478.478 0 0 0 .461-.7z" transform="translate(-126.39 120.118)"/><path d="m250.155-86.32h-4.012v-4.228h4.012a1.992 1.992 0 0 1 2.059 2.06 2.084 2.084 0 0 1 -2.059 2.168m6.26-2.249a5.775 5.775 0 0 0 -5.908-5.854h-8.1a.515.515 0 0 0 -.516.515v17.942a.515.515 0 0 0 .516.515h3.226a.532.532 0 0 0 .514-.515v-6.911h1.87l3.605 7.182a.5.5 0 0 0 .433.244h3.6a.513.513 0 0 0 .461-.787l-3.716-6.884a5.727 5.727 0 0 0 4.011-5.447" transform="translate(-134.998 120)"/><path d="m271.408-94.424h-3.253a.533.533 0 0 0 -.514.516v17.942a.533.533 0 0 0 .514.515h3.253a.533.533 0 0 0 .514-.515v-17.942a.533.533 0 0 0 -.514-.516" transform="translate(-142.809 120.001)"/><path d="m285.825-87.088c-1.9-.922-2.955-1.627-2.955-2.521a1.47 1.47 0 0 1 1.653-1.491 7.38 7.38 0 0 1 3.658 1.464.837.837 0 0 0 1.192-.189l1.384-2.087a.687.687 0 0 0 -.164-.867 10.074 10.074 0 0 0 -5.8-2.032c-4.174 0-6.261 2.709-6.261 5.393 0 3.252 2.63 4.716 5.259 5.989 1.788.867 2.792 1.6 2.792 2.737a1.7 1.7 0 0 1 -1.87 1.627 6.948 6.948 0 0 1 -3.849-1.49.638.638 0 0 0 -.921.162l-1.243 2.193a.61.61 0 0 0 .108.814 8.612 8.612 0 0 0 6.1 2.087c3.984 0 6.4-2.819 6.4-5.61 0-3.686-3.09-5.013-5.474-6.179" transform="translate(-146.113 120.118)"/><path d="m320.566-85.636h-1.489a.383.383 0 0 1 -.383-.383v-41.146a.382.382 0 0 1 .383-.382h1.489a.382.382 0 0 1 .384.382v41.146a.383.383 0 0 1 -.384.383" fill="#ff4527" transform="translate(-158.779 130.185)"/><path d="m371.315-120.014v-3.7s0-4.3-4.3-4.3h-20.9v4.813a9.945 9.945 0 0 1 2.029-.955c4.94-1.643 11.5-.554 16.392 9.687 1.264 2.643 1.08 2.291 2.4 5.2zm-25.206-2.105v14.819s0 4.3 4.306 4.3h13.393c-4.458-10.244-8.269-21.547-16.089-19.732a7.458 7.458 0 0 0 -1.61.6m20.747 19.128h4.459v-10.8z" fill="#ff4527" transform="translate(-167.548 130.328)"/><path d="m417.02-117.8v10.268l-8-10.268h-4.6v17.588h4.6v-10.328l8 10.328h4.6v-17.588z" transform="translate(-185.236 127.191)"/><path d="m520.734-118.04a9.039 9.039 0 0 0 -9.034 9.04 9.038 9.038 0 0 0 9.039 9.036 9.036 9.036 0 0 0 9.033-9.036 9.037 9.037 0 0 0 -9.037-9.039m0 14.054a5.015 5.015 0 0 1 -5.016-5.015 5.016 5.016 0 0 1 5.016-5.016 5.017 5.017 0 0 1 5.015 5.016 5.016 5.016 0 0 1 -5.016 5.015" transform="translate(-217.772 127.264)"/><path d="m497.756-117.786h-8.38v17.58h4.571v-5.8h3.809a5.88 5.88 0 0 0 5.88-5.88 5.894 5.894 0 0 0 -5.88-5.9m-.406 7.914h-3.4v-4.135h3.4a2.066 2.066 0 0 1 2.069 2.066 2.069 2.069 0 0 1 -2.069 2.069" transform="translate(-211.002 127.187)"/><path d="m390.4-100.209h4.028a.8.8 0 0 0 .819-.818v-16.773h-4.029a.8.8 0 0 0 -.818.818z" transform="translate(-180.98 127.191)"/><path d="m436.044-117.8v17.588h12.456v-3.938h-7.788v-2.976h7.443v-3.762h-7.443v-3.051h7.788v-3.861z" transform="translate(-194.826 127.19)"/><path d="m471.942-117.8-4.145 5.311-4.147-5.311h-5.438l6.83 8.838-6.83 8.75h5.574l4.014-5.188 4.009 5.189h5.574l-6.83-8.75 6.83-8.838z" transform="translate(-201.55 127.191)"/><path d="m457.774-69.193c1.78 0 3.06-1 3.06-2.535v-.025c0-1.37-.922-2.1-2.918-2.535-1.972-.423-2.433-.9-2.433-1.741v-.025c0-.807.743-1.447 1.908-1.447a3.936 3.936 0 0 1 2.586.973l.589-.781a4.675 4.675 0 0 0 -3.149-1.1c-1.7 0-2.944 1.037-2.944 2.445v.026c0 1.472.947 2.137 3.008 2.585 1.882.4 2.33.871 2.33 1.7v.026c0 .883-.794 1.524-2 1.524a4.271 4.271 0 0 1 -3.072-1.267l-.627.742a5.243 5.243 0 0 0 3.661 1.434m-7.987-.128h1.014v-8.961h-1.012zm-9.613-4.391v-3.635h2.764c1.447 0 2.292.665 2.292 1.766v.026c0 1.152-.96 1.843-2.3 1.843zm-1.012 4.391h1.012v-3.478h2.56l2.6 3.482h1.242l-2.752-3.661a2.622 2.622 0 0 0 2.431-2.611v-.025a2.476 2.476 0 0 0 -.691-1.768 3.534 3.534 0 0 0 -2.548-.9h-3.853zm-9.665-3.29 2.048-4.557 2.036 4.557zm-2.5 3.29h1.037l1.067-2.368h4.877l1.049 2.368h1.089l-4.084-9.025h-.948zm-7.15-4.078v-3.943h2.266c1.446 0 2.406.665 2.406 1.946v.025c0 1.177-.973 1.972-2.458 1.972zm-1.012 4.083h1.012v-3.162h2.176c1.908 0 3.52-1 3.52-2.932v-.025c0-1.767-1.331-2.842-3.353-2.842h-3.355z" fill="#ff4527" transform="translate(-189.606 115.143)"/></svg>